ply
format ascii 1.0
comment https://github.com/mikedh/trimesh
element vertex 122
property float x
property float y
property float z
property uchar red
property uchar green
property uchar blue
property uchar alpha
element face 240
property list uchar int vertex_indices
end_header
1.00000000 0.00000000 0.00000000 255 0 0 255
0.99433482 0.10629348 0.00000000 255 25 0 255
0.97740340 0.21138263 0.00000000 255 51 0 255
0.94939762 0.31407672 0.00000000 255 77 0 255
0.91063476 0.41321218 0.00000000 255 103 0 255
0.86155409 0.50766581 0.00000000 255 129 0 255
0.80271167 0.59636736 0.00000000 255 155 0 255
0.73477417 0.67831182 0.00000000 255 181 0 255
0.65851140 0.75257075 0.00000000 255 207 0 255
0.57478744 0.81830275 0.00000000 255 233 0 255
0.48455086 0.87476307 0.00000000 250 255 0 255
0.38882416 0.92131197 0.00000000 224 255 0 255
0.28869194 0.95742202 0.00000000 198 255 0 255
0.18528873 0.98268414 0.00000000 172 255 0 255
0.07978611 0.99681199 0.00000000 146 255 0 255
-0.02662052 0.99964559 0.00000000 121 255 0 255
-0.13272552 0.99115282 0.00000000 95 255 0 255
-0.23732670 0.97142988 0.00000000 69 255 0 255
-0.33923885 0.94070029 0.00000000 43 255 0 255
-0.43730733 0.89931214 0.00000000 17 255 0 255
-0.53042090 0.84773445 0.00000000 0 255 8 255
-0.61752462 0.78655154 0.00000000 0 255 34 255
-0.69763154 0.71645671 0.00000000 0 255 60 255
-0.76983398 0.63824421 0.00000000 0 255 86 255
-0.83331394 0.55280006 0.00000000 0 255 112 255
-0.88735205 0.46109250 0.00000000 0 255 138 255
-0.93133616 0.36416057 0.00000000 0 255 164 255
-0.96476787 0.26310256 0.00000000 0 255 190 255
-0.98726833 0.15906350 0.00000000 0 255 216 255
-0.99858272 0.05322218 0.00000000 0 255 242 255
-0.99858272 -0.05322218 0.00000000 0 242 255 255
-0.98726833 -0.15906350 0.00000000 0 216 255 255
-0.96476787 -0.26310256 0.00000000 0 190 255 255
-0.93133616 -0.36416057 0.00000000 0 164 255 255
-0.88735205 -0.46109250 0.00000000 0 138 255 255
-0.83331394 -0.55280006 0.00000000 0 112 255 255
-0.76983398 -0.63824421 0.00000000 0 86 255 255
-0.69763154 -0.71645671 0.00000000 0 60 255 255
-0.61752462 -0.78655154 0.00000000 0 34 255 255
-0.53042090 -0.84773445 0.00000000 0 8 255 255
-0.43730733 -0.89931214 0.00000000 17 0 255 255
-0.33923885 -0.94070029 0.00000000 43 0 255 255
-0.23732670 -0.97142988 0.00000000 69 0 255 255
-0.13272552 -0.99115282 0.00000000 95 0 255 255
-0.02662052 -0.99964559 0.00000000 121 0 255 255
0.07978611 -0.99681199 0.00000000 146 0 255 255
0.18528873 -0.98268414 0.00000000 172 0 255 255
0.28869194 -0.95742202 0.00000000 198 0 255 255
0.38882416 -0.92131197 0.00000000 224 0 255 255
0.48455086 -0.87476307 0.00000000 250 0 255 255
0.57478744 -0.81830275 0.00000000 255 0 233 255
0.65851140 -0.75257075 0.00000000 255 0 207 255
0.73477417 -0.67831182 0.00000000 255 0 181 255
0.80271167 -0.59636736 0.00000000 255 0 155 255
0.86155409 -0.50766581 0.00000000 255 0 129 255
0.91063476 -0.41321218 0.00000000 255 0 103 255
0.94939762 -0.31407672 0.00000000 255 0 77 255
0.97740340 -0.21138263 0.00000000 255 0 51 255
0.99433482 -0.10629348 0.00000000 255 0 25 255
1.00000000 -0.00000000 0.00000000 255 0 0 255
1.00000000 0.00000000 0.20000000 255 0 0 255
0.99433482 0.10629348 0.20000000 255 25 0 255
0.97740340 0.21138263 0.20000000 255 51 0 255
0.94939762 0.31407672 0.20000000 255 77 0 255
0.91063476 0.41321218 0.20000000 255 103 0 255
0.86155409 0.50766581 0.20000000 255 129 0 255
0.80271167 0.59636736 0.20000000 255 155 0 255
0.73477417 0.67831182 0.20000000 255 181 0 255
0.65851140 0.75257075 0.20000000 255 207 0 255
0.57478744 0.81830275 0.20000000 255 233 0 255
0.48455086 0.87476307 0.20000000 250 255 0 255
0.38882416 0.92131197 0.20000000 224 255 0 255
0.28869194 0.95742202 0.20000000 198 255 0 255
0.18528873 0.98268414 0.20000000 172 255 0 255
0.07978611 0.99681199 0.20000000 146 255 0 255
-0.02662052 0.99964559 0.20000000 121 255 0 255
-0.13272552 0.99115282 0.20000000 95 255 0 255
-0.23732670 0.97142988 0.20000000 69 255 0 255
-0.33923885 0.94070029 0.20000000 43 255 0 255
-0.43730733 0.89931214 0.20000000 17 255 0 255
-0.53042090 0.84773445 0.20000000 0 255 8 255
-0.61752462 0.78655154 0.20000000 0 255 34 255
-0.69763154 0.71645671 0.20000000 0 255 60 255
-0.76983398 0.63824421 0.20000000 0 255 86 255
-0.83331394 0.55280006 0.20000000 0 255 112 255
-0.88735205 0.46109250 0.20000000 0 255 138 255
-0.93133616 0.36416057 0.20000000 0 255 164 255
-0.96476787 0.26310256 0.20000000 0 255 190 255
-0.98726833 0.15906350 0.20000000 0 255 216 255
-0.99858272 0.05322218 0.20000000 0 255 242 255
-0.99858272 -0.05322218 0.20000000 0 242 255 255
-0.98726833 -0.15906350 0.20000000 0 216 255 255
-0.96476787 -0.26310256 0.20000000 0 190 255 255
-0.93133616 -0.36416057 0.20000000 0 164 255 255
-0.88735205 -0.46109250 0.20000000 0 138 255 255
-0.83331394 -0.55280006 0.20000000 0 112 255 255
-0.76983398 -0.63824421 0.20000000 0 86 255 255
-0.69763154 -0.71645671 0.20000000 0 60 255 255
-0.61752462 -0.78655154 0.20000000 0 34 255 255
-0.53042090 -0.84773445 0.20000000 0 8 255 255
-0.43730733 -0.89931214 0.20000000 17 0 255 255
-0.33923885 -0.94070029 0.20000000 43 0 255 255
-0.23732670 -0.97142988 0.20000000 69 0 255 255
-0.13272552 -0.99115282 0.20000000 95 0 255 255
-0.02662052 -0.99964559 0.20000000 121 0 255 255
0.07978611 -0.99681199 0.20000000 146 0 255 255
0.18528873 -0.98268414 0.20000000 172 0 255 255
0.28869194 -0.95742202 0.20000000 198 0 255 255
0.38882416 -0.92131197 0.20000000 224 0 255 255
0.48455086 -0.87476307 0.20000000 250 0 255 255
0.57478744 -0.81830275 0.20000000 255 0 233 255
0.65851140 -0.75257075 0.20000000 255 0 207 255
0.73477417 -0.67831182 0.20000000 255 0 181 255
0.80271167 -0.59636736 0.20000000 255 0 155 255
0.86155409 -0.50766581 0.20000000 255 0 129 255
0.91063476 -0.41321218 0.20000000 255 0 103 255
0.94939762 -0.31407672 0.20000000 255 0 77 255
0.97740340 -0.21138263 0.20000000 255 0 51 255
0.99433482 -0.10629348 0.20000000 255 0 25 255
1.00000000 -0.00000000 0.20000000 255 0 0 255
0.00000000 0.00000000 0.00000000 255 255 255 255
0.00000000 0.00000000 0.20000000 255 255 255 255
3 0 61 60
3 0 1 61
3 1 62 61
3 1 2 62
3 2 63 62
3 2 3 63
3 3 64 63
3 3 4 64
3 4 65 64
3 4 5 65
3 5 66 65
3 5 6 66
3 6 67 66
3 6 7 67
3 7 68 67
3 7 8 68
3 8 69 68
3 8 9 69
3 9 70 69
3 9 10 70
3 10 71 70
3 10 11 71
3 11 72 71
3 11 12 72
3 12 73 72
3 12 13 73
3 13 74 73
3 13 14 74
3 14 75 74
3 14 15 75
3 15 76 75
3 15 16 76
3 16 77 76
3 16 17 77
3 17 78 77
3 17 18 78
3 18 79 78
3 18 19 79
3 19 80 79
3 19 20 80
3 20 81 80
3 20 21 81
3 21 82 81
3 21 22 82
3 22 83 82
3 22 23 83
3 23 84 83
3 23 24 84
3 24 85 84
3 24 25 85
3 25 86 85
3 25 26 86
3 26 87 86
3 26 27 87
3 27 88 87
3 27 28 88
3 28 89 88
3 28 29 89
3 29 90 89
3 29 30 90
3 30 91 90
3 30 31 91
3 31 92 91
3 31 32 92
3 32 93 92
3 32 33 93
3 33 94 93
3 33 34 94
3 34 95 94
3 34 35 95
3 35 96 95
3 35 36 96
3 36 97 96
3 36 37 97
3 37 98 97
3 37 38 98
3 38 99 98
3 38 39 99
3 39 100 99
3 39 40 100
3 40 101 100
3 40 41 101
3 41 102 101
3 41 42 102
3 42 103 102
3 42 43 103
3 43 104 103
3 43 44 104
3 44 105 104
3 44 45 105
3 45 106 105
3 45 46 106
3 46 107 106
3 46 47 107
3 47 108 107
3 47 48 108
3 48 109 108
3 48 49 109
3 49 110 109
3 49 50 110
3 50 111 110
3 50 51 111
3 51 112 111
3 51 52 112
3 52 113 112
3 52 53 113
3 53 114 113
3 53 54 114
3 54 115 114
3 54 55 115
3 55 116 115
3 55 56 116
3 56 117 116
3 56 57 117
3 57 118 117
3 57 58 118
3 58 119 118
3 58 59 119
3 59 60 119
3 59 0 60
3 0 1 120
3 1 2 120
3 2 3 120
3 3 4 120
3 4 5 120
3 5 6 120
3 6 7 120
3 7 8 120
3 8 9 120
3 9 10 120
3 10 11 120
3 11 12 120
3 12 13 120
3 13 14 120
3 14 15 120
3 15 16 120
3 16 17 120
3 17 18 120
3 18 19 120
3 19 20 120
3 20 21 120
3 21 22 120
3 22 23 120
3 23 24 120
3 24 25 120
3 25 26 120
3 26 27 120
3 27 28 120
3 28 29 120
3 29 30 120
3 30 31 120
3 31 32 120
3 32 33 120
3 33 34 120
3 34 35 120
3 35 36 120
3 36 37 120
3 37 38 120
3 38 39 120
3 39 40 120
3 40 41 120
3 41 42 120
3 42 43 120
3 43 44 120
3 44 45 120
3 45 46 120
3 46 47 120
3 47 48 120
3 48 49 120
3 49 50 120
3 50 51 120
3 51 52 120
3 52 53 120
3 53 54 120
3 54 55 120
3 55 56 120
3 56 57 120
3 57 58 120
3 58 59 120
3 59 0 120
3 60 121 61
3 61 121 62
3 62 121 63
3 63 121 64
3 64 121 65
3 65 121 66
3 66 121 67
3 67 121 68
3 68 121 69
3 69 121 70
3 70 121 71
3 71 121 72
3 72 121 73
3 73 121 74
3 74 121 75
3 75 121 76
3 76 121 77
3 77 121 78
3 78 121 79
3 79 121 80
3 80 121 81
3 81 121 82
3 82 121 83
3 83 121 84
3 84 121 85
3 85 121 86
3 86 121 87
3 87 121 88
3 88 121 89
3 89 121 90
3 90 121 91
3 91 121 92
3 92 121 93
3 93 121 94
3 94 121 95
3 95 121 96
3 96 121 97
3 97 121 98
3 98 121 99
3 99 121 100
3 100 121 101
3 101 121 102
3 102 121 103
3 103 121 104
3 104 121 105
3 105 121 106
3 106 121 107
3 107 121 108
3 108 121 109
3 109 121 110
3 110 121 111
3 111 121 112
3 112 121 113
3 113 121 114
3 114 121 115
3 115 121 116
3 116 121 117
3 117 121 118
3 118 121 119
3 119 121 60
