# Blender 4.3.2
# www.blender.org
mtllib 无标题.mtl
o color_wheel_cylinder
v 1.422659 0.180665 -0.125924 1.0000 0.0000 0.0000
v 1.416994 0.180665 -0.232218 1.0000 0.0980 0.0000
v 1.400063 0.180665 -0.337307 1.0000 0.2000 0.0000
v 1.372057 0.180665 -0.440001 1.0000 0.3019 0.0000
v 1.333294 0.180665 -0.539137 1.0000 0.4039 0.0000
v 1.284213 0.180665 -0.633590 1.0000 0.5059 0.0000
v 1.225371 0.180665 -0.722292 1.0000 0.6079 0.0000
v 1.157434 0.180665 -0.804236 1.0000 0.7098 0.0000
v 1.081171 0.180665 -0.878495 1.0000 0.8117 0.0000
v 0.997447 0.180665 -0.944227 1.0000 0.9137 0.0000
v 0.907210 0.180665 -1.000687 0.9804 1.0000 0.0000
v 0.811484 0.180665 -1.047236 0.8784 1.0000 0.0000
v 0.711351 0.180665 -1.083346 0.7764 1.0000 0.0000
v 0.607948 0.180665 -1.108609 0.6745 1.0000 0.0000
v 0.502445 0.180665 -1.122736 0.5725 1.0000 0.0000
v 0.396039 0.180665 -1.125570 0.4745 1.0000 0.0000
v 0.289934 0.180665 -1.117077 0.3725 1.0000 0.0000
v 0.185333 0.180665 -1.097354 0.2706 1.0000 0.0000
v 0.083420 0.180665 -1.066625 0.1686 1.0000 0.0000
v -0.014648 0.180665 -1.025237 0.0667 1.0000 0.0000
v -0.107762 0.180665 -0.973659 0.0000 1.0000 0.0314
v -0.194865 0.180665 -0.912476 0.0000 1.0000 0.1333
v -0.274972 0.180665 -0.842381 0.0000 1.0000 0.2353
v -0.347175 0.180665 -0.764169 0.0000 1.0000 0.3372
v -0.410655 0.180665 -0.678725 0.0000 1.0000 0.4392
v -0.464693 0.180665 -0.587017 0.0000 1.0000 0.5412
v -0.508677 0.180665 -0.490085 0.0000 1.0000 0.6432
v -0.542109 0.180665 -0.389027 0.0000 1.0000 0.7451
v -0.564609 0.180665 -0.284988 0.0000 1.0000 0.8470
v -0.575923 0.180665 -0.179147 0.0000 1.0000 0.9490
v -0.575923 0.180665 -0.072702 0.0000 0.9490 1.0000
v -0.564609 0.180665 0.033139 0.0000 0.8470 1.0000
v -0.542109 0.180665 0.137178 0.0000 0.7451 1.0000
v -0.508677 0.180665 0.238236 0.0000 0.6432 1.0000
v -0.464693 0.180665 0.335168 0.0000 0.5412 1.0000
v -0.410655 0.180665 0.426876 0.0000 0.4392 1.0000
v -0.347175 0.180665 0.512320 0.0000 0.3372 1.0000
v -0.274972 0.180665 0.590532 0.0000 0.2353 1.0000
v -0.194865 0.180665 0.660627 0.0000 0.1333 1.0000
v -0.107762 0.180665 0.721810 0.0000 0.0314 1.0000
v -0.014648 0.180665 0.773388 0.0667 0.0000 1.0000
v 0.083420 0.180665 0.814776 0.1686 0.0000 1.0000
v 0.185333 0.180665 0.845505 0.2706 0.0000 1.0000
v 0.289934 0.180665 0.865228 0.3725 0.0000 1.0000
v 0.396039 0.180665 0.873721 0.4745 0.0000 1.0000
v 0.502445 0.180665 0.870888 0.5725 0.0000 1.0000
v 0.607948 0.180665 0.856760 0.6745 0.0000 1.0000
v 0.711351 0.180665 0.831498 0.7764 0.0000 1.0000
v 0.811484 0.180665 0.795388 0.8784 0.0000 1.0000
v 0.907210 0.180665 0.748839 0.9804 0.0000 1.0000
v 0.997447 0.180665 0.692378 1.0000 0.0000 0.9137
v 1.081171 0.180665 0.626646 1.0000 0.0000 0.8117
v 1.157434 0.180665 0.552387 1.0000 0.0000 0.7098
v 1.225371 0.180665 0.470443 1.0000 0.0000 0.6079
v 1.284213 0.180665 0.381741 1.0000 0.0000 0.5059
v 1.333294 0.180665 0.287288 1.0000 0.0000 0.4039
v 1.372057 0.180665 0.188152 1.0000 0.0000 0.3019
v 1.400063 0.180665 0.085458 1.0000 0.0000 0.2000
v 1.416994 0.180665 -0.019631 1.0000 0.0000 0.0980
v 1.422659 0.180665 -0.125924 1.0000 0.0000 0.0000
v 1.422659 0.380665 -0.125924 1.0000 0.0000 0.0000
v 1.416994 0.380665 -0.232218 1.0000 0.0980 0.0000
v 1.400063 0.380665 -0.337307 1.0000 0.2000 0.0000
v 1.372057 0.380665 -0.440001 1.0000 0.3019 0.0000
v 1.333294 0.380665 -0.539137 1.0000 0.4039 0.0000
v 1.284213 0.380665 -0.633590 1.0000 0.5059 0.0000
v 1.225371 0.380665 -0.722292 1.0000 0.6079 0.0000
v 1.157434 0.380665 -0.804236 1.0000 0.7098 0.0000
v 1.081171 0.380665 -0.878495 1.0000 0.8117 0.0000
v 0.997447 0.380665 -0.944227 1.0000 0.9137 0.0000
v 0.907210 0.380665 -1.000687 0.9804 1.0000 0.0000
v 0.811484 0.380665 -1.047236 0.8784 1.0000 0.0000
v 0.711351 0.380665 -1.083346 0.7764 1.0000 0.0000
v 0.607948 0.380665 -1.108609 0.6745 1.0000 0.0000
v 0.502445 0.380665 -1.122736 0.5725 1.0000 0.0000
v 0.396039 0.380665 -1.125570 0.4745 1.0000 0.0000
v 0.289934 0.380665 -1.117077 0.3725 1.0000 0.0000
v 0.185333 0.380665 -1.097354 0.2706 1.0000 0.0000
v 0.083420 0.380665 -1.066625 0.1686 1.0000 0.0000
v -0.014648 0.380665 -1.025237 0.0667 1.0000 0.0000
v -0.107762 0.380665 -0.973659 0.0000 1.0000 0.0314
v -0.194865 0.380665 -0.912476 0.0000 1.0000 0.1333
v -0.274972 0.380665 -0.842381 0.0000 1.0000 0.2353
v -0.347175 0.380665 -0.764169 0.0000 1.0000 0.3372
v -0.410655 0.380665 -0.678725 0.0000 1.0000 0.4392
v -0.464693 0.380665 -0.587017 0.0000 1.0000 0.5412
v -0.508677 0.380665 -0.490085 0.0000 1.0000 0.6432
v -0.542109 0.380665 -0.389027 0.0000 1.0000 0.7451
v -0.564609 0.380665 -0.284988 0.0000 1.0000 0.8470
v -0.575923 0.380665 -0.179147 0.0000 1.0000 0.9490
v -0.575923 0.380665 -0.072702 0.0000 0.9490 1.0000
v -0.564609 0.380665 0.033139 0.0000 0.8470 1.0000
v -0.542109 0.380665 0.137178 0.0000 0.7451 1.0000
v -0.508677 0.380665 0.238236 0.0000 0.6432 1.0000
v -0.464693 0.380665 0.335168 0.0000 0.5412 1.0000
v -0.410655 0.380665 0.426876 0.0000 0.4392 1.0000
v -0.347175 0.380665 0.512320 0.0000 0.3372 1.0000
v -0.274972 0.380665 0.590532 0.0000 0.2353 1.0000
v -0.194865 0.380665 0.660627 0.0000 0.1333 1.0000
v -0.107762 0.380665 0.721810 0.0000 0.0314 1.0000
v -0.014648 0.380665 0.773388 0.0667 0.0000 1.0000
v 0.083420 0.380665 0.814776 0.1686 0.0000 1.0000
v 0.185333 0.380665 0.845505 0.2706 0.0000 1.0000
v 0.289934 0.380665 0.865228 0.3725 0.0000 1.0000
v 0.396039 0.380665 0.873721 0.4745 0.0000 1.0000
v 0.502445 0.380665 0.870888 0.5725 0.0000 1.0000
v 0.607948 0.380665 0.856760 0.6745 0.0000 1.0000
v 0.711351 0.380665 0.831498 0.7764 0.0000 1.0000
v 0.811484 0.380665 0.795388 0.8784 0.0000 1.0000
v 0.907210 0.380665 0.748839 0.9804 0.0000 1.0000
v 0.997447 0.380665 0.692378 1.0000 0.0000 0.9137
v 1.081171 0.380665 0.626646 1.0000 0.0000 0.8117
v 1.157434 0.380665 0.552387 1.0000 0.0000 0.7098
v 1.225371 0.380665 0.470443 1.0000 0.0000 0.6079
v 1.284213 0.380665 0.381741 1.0000 0.0000 0.5059
v 1.333294 0.380665 0.287288 1.0000 0.0000 0.4039
v 1.372057 0.380665 0.188152 1.0000 0.0000 0.3019
v 1.400063 0.380665 0.085458 1.0000 0.0000 0.2000
v 1.416994 0.380665 -0.019631 1.0000 0.0000 0.0980
v 1.422659 0.380665 -0.125924 1.0000 0.0000 0.0000
v 0.422659 0.180665 -0.125924 1.0000 1.0000 1.0000
v 0.422659 0.380665 -0.125924 1.0000 1.0000 1.0000
vn 0.9986 -0.0000 -0.0532
vn 0.9873 -0.0000 -0.1591
vn 0.9648 -0.0000 -0.2631
vn 0.9313 -0.0000 -0.3642
vn 0.8874 -0.0000 -0.4611
vn 0.8333 -0.0000 -0.5528
vn 0.7698 -0.0000 -0.6382
vn 0.6976 -0.0000 -0.7165
vn 0.6175 -0.0000 -0.7866
vn 0.5304 -0.0000 -0.8477
vn 0.4373 -0.0000 -0.8993
vn 0.3392 -0.0000 -0.9407
vn 0.2373 -0.0000 -0.9714
vn 0.1327 -0.0000 -0.9912
vn 0.0266 -0.0000 -0.9996
vn -0.0798 -0.0000 -0.9968
vn -0.1853 -0.0000 -0.9827
vn -0.2887 -0.0000 -0.9574
vn -0.3888 -0.0000 -0.9213
vn -0.4846 -0.0000 -0.8748
vn -0.5748 -0.0000 -0.8183
vn -0.6585 -0.0000 -0.7526
vn -0.7348 -0.0000 -0.6783
vn -0.8027 -0.0000 -0.5964
vn -0.8616 -0.0000 -0.5077
vn -0.9106 -0.0000 -0.4132
vn -0.9494 -0.0000 -0.3141
vn -0.9774 -0.0000 -0.2114
vn -0.9943 -0.0000 -0.1063
vn -1.0000 -0.0000 -0.0000
vn -0.9943 -0.0000 0.1063
vn -0.9774 -0.0000 0.2114
vn -0.9494 -0.0000 0.3141
vn -0.9106 -0.0000 0.4132
vn -0.8616 -0.0000 0.5077
vn -0.8027 -0.0000 0.5964
vn -0.7348 -0.0000 0.6783
vn -0.6585 -0.0000 0.7526
vn -0.5748 -0.0000 0.8183
vn -0.4846 -0.0000 0.8748
vn -0.3888 -0.0000 0.9213
vn -0.2887 -0.0000 0.9574
vn -0.1853 -0.0000 0.9827
vn -0.0798 -0.0000 0.9968
vn 0.0266 -0.0000 0.9996
vn 0.1327 -0.0000 0.9912
vn 0.2373 -0.0000 0.9714
vn 0.3392 -0.0000 0.9407
vn 0.4373 -0.0000 0.8993
vn 0.5304 -0.0000 0.8477
vn 0.6175 -0.0000 0.7866
vn 0.6976 -0.0000 0.7165
vn 0.7698 -0.0000 0.6382
vn 0.8333 -0.0000 0.5528
vn 0.8874 -0.0000 0.4611
vn 0.9313 -0.0000 0.3642
vn 0.9648 -0.0000 0.2631
vn 0.9873 -0.0000 0.1591
vn 0.9986 -0.0000 0.0532
vn -0.0000 1.0000 -0.0000
vn -0.0000 -1.0000 -0.0000
vt 0.050035 0.500177
vt 0.000000 0.519744
vt 0.000000 0.500177
vt 0.050035 0.519744
vt 0.000000 0.541120
vt 0.050035 0.541120
vt 0.000000 0.564063
vt 0.050035 0.564063
vt 0.000000 0.588314
vt 0.050035 0.588314
vt 0.000000 0.613596
vt 0.050035 0.613596
vt 0.000000 0.639624
vt 0.050035 0.639624
vt 0.000000 0.666103
vt 0.050035 0.666103
vt 0.000000 0.692733
vt 0.050035 0.692733
vt 0.000000 0.719212
vt 0.050035 0.719212
vt 0.000000 0.745241
vt 0.050035 0.745241
vt 0.000000 0.770523
vt 0.050035 0.770523
vt 0.000000 0.794773
vt 0.050035 0.794773
vt 0.000000 0.817716
vt 0.050035 0.817716
vt 0.000000 0.839093
vt 0.050035 0.839093
vt 0.000000 0.858660
vt 0.050035 0.858660
vt 0.200142 0.500177
vt 0.150106 0.519744
vt 0.150106 0.500177
vt 0.200142 0.519744
vt 0.150106 0.541120
vt 0.200142 0.541120
vt 0.150106 0.564064
vt 0.200142 0.564064
vt 0.150106 0.588314
vt 0.200142 0.588314
vt 0.150106 0.613596
vt 0.200142 0.613596
vt 0.150106 0.639624
vt 0.200142 0.639624
vt 0.150106 0.666103
vt 0.200142 0.666103
vt 0.150106 0.692733
vt 0.200142 0.692733
vt 0.150106 0.719212
vt 0.200142 0.719212
vt 0.150106 0.745241
vt 0.200142 0.745241
vt 0.150106 0.770523
vt 0.200142 0.770523
vt 0.150106 0.794773
vt 0.200142 0.794773
vt 0.150106 0.817716
vt 0.200142 0.817716
vt 0.150106 0.839093
vt 0.200142 0.839093
vt 0.100071 0.500177
vt 0.050036 0.519744
vt 0.050036 0.500177
vt 0.100071 0.519744
vt 0.050036 0.541120
vt 0.100071 0.541120
vt 0.050035 0.564063
vt 0.100071 0.564063
vt 0.050035 0.588314
vt 0.100071 0.588314
vt 0.050035 0.613596
vt 0.100071 0.613596
vt 0.050035 0.639624
vt 0.100071 0.639624
vt 0.050035 0.666103
vt 0.100071 0.666103
vt 0.050035 0.692733
vt 0.100071 0.692733
vt 0.050035 0.719212
vt 0.100071 0.719212
vt 0.050035 0.745241
vt 0.100071 0.745241
vt 0.050035 0.770523
vt 0.100071 0.770523
vt 0.050035 0.794773
vt 0.100071 0.794773
vt 0.050035 0.817716
vt 0.100071 0.817716
vt 0.050035 0.839093
vt 0.100071 0.839093
vt 0.050035 0.858660
vt 0.100071 0.858660
vt 0.150106 0.500177
vt 0.100071 0.519744
vt 0.100071 0.500177
vt 0.150106 0.519744
vt 0.100071 0.541120
vt 0.150106 0.541120
vt 0.100071 0.564064
vt 0.150106 0.564064
vt 0.100071 0.588314
vt 0.150106 0.588314
vt 0.100071 0.613596
vt 0.150106 0.613596
vt 0.100071 0.639624
vt 0.150106 0.639624
vt 0.100071 0.666103
vt 0.150106 0.666103
vt 0.100071 0.692733
vt 0.150106 0.692733
vt 0.100071 0.719212
vt 0.150106 0.719212
vt 0.100071 0.745241
vt 0.150106 0.745241
vt 0.100071 0.770523
vt 0.150106 0.770523
vt 0.100071 0.794773
vt 0.150106 0.794773
vt 0.100071 0.817716
vt 0.150106 0.817716
vt 0.100071 0.839093
vt 0.150106 0.839093
vt 0.100071 0.858660
vt 0.150106 0.858660
vt 0.200142 0.500177
vt 0.500000 0.263404
vt 0.497169 0.289883
vt 0.250177 0.250089
vt 0.491540 0.315911
vt 0.483176 0.341193
vt 0.472173 0.365443
vt 0.458654 0.388387
vt 0.442772 0.409763
vt 0.424709 0.429330
vt 0.404668 0.446866
vt 0.382877 0.462172
vt 0.359582 0.475076
vt 0.335047 0.485430
vt 0.309551 0.493118
vt 0.283382 0.498053
vt 0.256837 0.500177
vt 0.230217 0.499468
vt 0.203822 0.495934
vt 0.177953 0.489614
vt 0.152902 0.480580
vt 0.128954 0.468934
vt 0.106379 0.454809
vt 0.085433 0.438365
vt 0.066354 0.419787
vt 0.049357 0.399286
vt 0.034636 0.377095
vt 0.022357 0.353465
vt 0.012660 0.328663
vt 0.005653 0.302972
vt 0.001417 0.276681
vt 0.000000 0.250089
vt 0.001417 0.223496
vt 0.005653 0.197205
vt 0.012660 0.171514
vt 0.022357 0.146712
vt 0.034636 0.123082
vt 0.049357 0.100891
vt 0.066353 0.080390
vt 0.085433 0.061813
vt 0.106379 0.045368
vt 0.128954 0.031243
vt 0.152902 0.019597
vt 0.177953 0.010563
vt 0.203822 0.004243
vt 0.230217 0.000709
vt 0.256837 -0.000000
vt 0.283382 0.002125
vt 0.309551 0.007059
vt 0.335047 0.014747
vt 0.359582 0.025101
vt 0.382877 0.038005
vt 0.404668 0.053311
vt 0.424709 0.070847
vt 0.442772 0.090414
vt 0.458653 0.111791
vt 0.472173 0.134734
vt 0.483176 0.158984
vt 0.491540 0.184266
vt 0.497169 0.210294
vt 0.500000 0.236774
vt 0.500000 0.236774
vt 0.749823 0.250089
vt 0.500000 0.263404
vt 0.502831 0.289883
vt 0.508460 0.315911
vt 0.516824 0.341193
vt 0.527827 0.365443
vt 0.541347 0.388387
vt 0.557228 0.409763
vt 0.575291 0.429330
vt 0.595332 0.446866
vt 0.617123 0.462173
vt 0.640418 0.475076
vt 0.664953 0.485430
vt 0.690449 0.493118
vt 0.716618 0.498053
vt 0.743163 0.500177
vt 0.769783 0.499468
vt 0.796178 0.495934
vt 0.822047 0.489614
vt 0.847098 0.480580
vt 0.871046 0.468934
vt 0.893622 0.454809
vt 0.914567 0.438365
vt 0.933647 0.419787
vt 0.950643 0.399286
vt 0.965364 0.377095
vt 0.977643 0.353465
vt 0.987340 0.328663
vt 0.994347 0.302972
vt 0.998583 0.276681
vt 1.000000 0.250089
vt 0.998583 0.223496
vt 0.994347 0.197205
vt 0.987340 0.171514
vt 0.977643 0.146712
vt 0.965364 0.123082
vt 0.950643 0.100891
vt 0.933646 0.080390
vt 0.914567 0.061812
vt 0.893621 0.045368
vt 0.871046 0.031243
vt 0.847098 0.019597
vt 0.822047 0.010563
vt 0.796178 0.004243
vt 0.769783 0.000709
vt 0.743163 -0.000000
vt 0.716618 0.002125
vt 0.690449 0.007059
vt 0.664953 0.014747
vt 0.640418 0.025101
vt 0.617123 0.038005
vt 0.595332 0.053311
vt 0.575291 0.070847
vt 0.557228 0.090414
vt 0.541346 0.111791
vt 0.527827 0.134734
vt 0.516824 0.158984
vt 0.508460 0.184266
vt 0.502831 0.210295
s 0
g color_wheel_cylinder_材质
usemtl 材质
f 1/1/1 62/2/1 61/3/1
f 1/1/1 2/4/1 62/2/1
f 2/4/2 63/5/2 62/2/2
f 2/4/2 3/6/2 63/5/2
f 3/6/3 64/7/3 63/5/3
f 3/6/3 4/8/3 64/7/3
f 4/8/4 65/9/4 64/7/4
f 4/8/4 5/10/4 65/9/4
f 5/10/5 66/11/5 65/9/5
f 5/10/5 6/12/5 66/11/5
f 6/12/6 67/13/6 66/11/6
f 6/12/6 7/14/6 67/13/6
f 7/14/7 68/15/7 67/13/7
f 7/14/7 8/16/7 68/15/7
f 8/16/8 69/17/8 68/15/8
f 8/16/8 9/18/8 69/17/8
f 9/18/9 70/19/9 69/17/9
f 9/18/9 10/20/9 70/19/9
f 10/20/10 71/21/10 70/19/10
f 10/20/10 11/22/10 71/21/10
f 11/22/11 72/23/11 71/21/11
f 11/22/11 12/24/11 72/23/11
f 12/24/12 73/25/12 72/23/12
f 12/24/12 13/26/12 73/25/12
f 13/26/13 74/27/13 73/25/13
f 13/26/13 14/28/13 74/27/13
f 14/28/14 75/29/14 74/27/14
f 14/28/14 15/30/14 75/29/14
f 15/30/15 76/31/15 75/29/15
f 15/30/15 16/32/15 76/31/15
f 16/33/16 77/34/16 76/35/16
f 16/33/16 17/36/16 77/34/16
f 17/36/17 78/37/17 77/34/17
f 17/36/17 18/38/17 78/37/17
f 18/38/18 79/39/18 78/37/18
f 18/38/18 19/40/18 79/39/18
f 19/40/19 80/41/19 79/39/19
f 19/40/19 20/42/19 80/41/19
f 20/42/20 81/43/20 80/41/20
f 20/42/20 21/44/20 81/43/20
f 21/44/21 82/45/21 81/43/21
f 21/44/21 22/46/21 82/45/21
f 22/46/22 83/47/22 82/45/22
f 22/46/22 23/48/22 83/47/22
f 23/48/23 84/49/23 83/47/23
f 23/48/23 24/50/23 84/49/23
f 24/50/24 85/51/24 84/49/24
f 24/50/24 25/52/24 85/51/24
f 25/52/25 86/53/25 85/51/25
f 25/52/25 26/54/25 86/53/25
f 26/54/26 87/55/26 86/53/26
f 26/54/26 27/56/26 87/55/26
f 27/56/27 88/57/27 87/55/27
f 27/56/27 28/58/27 88/57/27
f 28/58/28 89/59/28 88/57/28
f 28/58/28 29/60/28 89/59/28
f 29/60/29 90/61/29 89/59/29
f 29/60/29 30/62/29 90/61/29
f 30/63/30 91/64/30 90/65/30
f 30/63/30 31/66/30 91/64/30
f 31/66/31 92/67/31 91/64/31
f 31/66/31 32/68/31 92/67/31
f 32/68/32 93/69/32 92/67/32
f 32/68/32 33/70/32 93/69/32
f 33/70/33 94/71/33 93/69/33
f 33/70/33 34/72/33 94/71/33
f 34/72/34 95/73/34 94/71/34
f 34/72/34 35/74/34 95/73/34
f 35/74/35 96/75/35 95/73/35
f 35/74/35 36/76/35 96/75/35
f 36/76/36 97/77/36 96/75/36
f 36/76/36 37/78/36 97/77/36
f 37/78/37 98/79/37 97/77/37
f 37/78/37 38/80/37 98/79/37
f 38/80/38 99/81/38 98/79/38
f 38/80/38 39/82/38 99/81/38
f 39/82/39 100/83/39 99/81/39
f 39/82/39 40/84/39 100/83/39
f 40/84/40 101/85/40 100/83/40
f 40/84/40 41/86/40 101/85/40
f 41/86/41 102/87/41 101/85/41
f 41/86/41 42/88/41 102/87/41
f 42/88/42 103/89/42 102/87/42
f 42/88/42 43/90/42 103/89/42
f 43/90/43 104/91/43 103/89/43
f 43/90/43 44/92/43 104/91/43
f 44/92/44 105/93/44 104/91/44
f 44/92/44 45/94/44 105/93/44
f 45/95/45 106/96/45 105/97/45
f 45/95/45 46/98/45 106/96/45
f 46/98/46 107/99/46 106/96/46
f 46/98/46 47/100/46 107/99/46
f 47/100/47 108/101/47 107/99/47
f 47/100/47 48/102/47 108/101/47
f 48/102/48 109/103/48 108/101/48
f 48/102/48 49/104/48 109/103/48
f 49/104/49 110/105/49 109/103/49
f 49/104/49 50/106/49 110/105/49
f 50/106/50 111/107/50 110/105/50
f 50/106/50 51/108/50 111/107/50
f 51/108/51 112/109/51 111/107/51
f 51/108/51 52/110/51 112/109/51
f 52/110/52 113/111/52 112/109/52
f 52/110/52 53/112/52 113/111/52
f 53/112/53 114/113/53 113/111/53
f 53/112/53 54/114/53 114/113/53
f 54/114/54 115/115/54 114/113/54
f 54/114/54 55/116/54 115/115/54
f 55/116/55 116/117/55 115/115/55
f 55/116/55 56/118/55 116/117/55
f 56/118/56 117/119/56 116/117/56
f 56/118/56 57/120/56 117/119/56
f 57/120/57 118/121/57 117/119/57
f 57/120/57 58/122/57 118/121/57
f 58/122/58 119/123/58 118/121/58
f 58/122/58 59/124/58 119/123/58
f 59/124/59 120/125/59 119/123/59
f 59/124/59 60/126/59 120/125/59
f 60/127/60 61/127/60 120/127/60
f 60/127/60 1/127/60 61/127/60
f 1/128/60 2/129/60 121/130/60
f 2/129/60 3/131/60 121/130/60
f 3/131/60 4/132/60 121/130/60
f 4/132/60 5/133/60 121/130/60
f 5/133/60 6/134/60 121/130/60
f 6/134/60 7/135/60 121/130/60
f 7/135/60 8/136/60 121/130/60
f 8/136/60 9/137/60 121/130/60
f 9/137/60 10/138/60 121/130/60
f 10/138/60 11/139/60 121/130/60
f 11/139/60 12/140/60 121/130/60
f 12/140/60 13/141/60 121/130/60
f 13/141/60 14/142/60 121/130/60
f 14/142/60 15/143/60 121/130/60
f 15/143/60 16/144/60 121/130/60
f 16/144/60 17/145/60 121/130/60
f 17/145/60 18/146/60 121/130/60
f 18/146/60 19/147/60 121/130/60
f 19/147/60 20/148/60 121/130/60
f 20/148/60 21/149/60 121/130/60
f 21/149/60 22/150/60 121/130/60
f 22/150/60 23/151/60 121/130/60
f 23/151/60 24/152/60 121/130/60
f 24/152/60 25/153/60 121/130/60
f 25/153/60 26/154/60 121/130/60
f 26/154/60 27/155/60 121/130/60
f 27/155/60 28/156/60 121/130/60
f 28/156/60 29/157/60 121/130/60
f 29/157/60 30/158/60 121/130/60
f 30/158/60 31/159/60 121/130/60
f 31/159/60 32/160/60 121/130/60
f 32/160/60 33/161/60 121/130/60
f 33/161/60 34/162/60 121/130/60
f 34/162/60 35/163/60 121/130/60
f 35/163/60 36/164/60 121/130/60
f 36/164/60 37/165/60 121/130/60
f 37/165/60 38/166/60 121/130/60
f 38/166/60 39/167/60 121/130/60
f 39/167/60 40/168/60 121/130/60
f 40/168/60 41/169/60 121/130/60
f 41/169/60 42/170/60 121/130/60
f 42/170/60 43/171/60 121/130/60
f 43/171/60 44/172/60 121/130/60
f 44/172/60 45/173/60 121/130/60
f 45/173/60 46/174/60 121/130/60
f 46/174/60 47/175/60 121/130/60
f 47/175/60 48/176/60 121/130/60
f 48/176/60 49/177/60 121/130/60
f 49/177/60 50/178/60 121/130/60
f 50/178/60 51/179/60 121/130/60
f 51/179/60 52/180/60 121/130/60
f 52/180/60 53/181/60 121/130/60
f 53/181/60 54/182/60 121/130/60
f 54/182/60 55/183/60 121/130/60
f 55/183/60 56/184/60 121/130/60
f 56/184/60 57/185/60 121/130/60
f 57/185/60 58/186/60 121/130/60
f 58/186/60 59/187/60 121/130/60
f 59/187/60 60/128/60 121/130/60
f 60/127/60 1/127/60 121/127/60
f 61/188/61 122/189/61 62/190/61
f 62/190/61 122/189/61 63/191/61
f 63/191/61 122/189/61 64/192/61
f 64/192/61 122/189/61 65/193/61
f 65/193/61 122/189/61 66/194/61
f 66/194/61 122/189/61 67/195/61
f 67/195/61 122/189/61 68/196/61
f 68/196/61 122/189/61 69/197/61
f 69/197/61 122/189/61 70/198/61
f 70/198/61 122/189/61 71/199/61
f 71/199/61 122/189/61 72/200/61
f 72/200/61 122/189/61 73/201/61
f 73/201/61 122/189/61 74/202/61
f 74/202/61 122/189/61 75/203/61
f 75/203/61 122/189/61 76/204/61
f 76/204/61 122/189/61 77/205/61
f 77/205/61 122/189/61 78/206/61
f 78/206/61 122/189/61 79/207/61
f 79/207/61 122/189/61 80/208/61
f 80/208/61 122/189/61 81/209/61
f 81/209/61 122/189/61 82/210/61
f 82/210/61 122/189/61 83/211/61
f 83/211/61 122/189/61 84/212/61
f 84/212/61 122/189/61 85/213/61
f 85/213/61 122/189/61 86/214/61
f 86/214/61 122/189/61 87/215/61
f 87/215/61 122/189/61 88/216/61
f 88/216/61 122/189/61 89/217/61
f 89/217/61 122/189/61 90/218/61
f 90/218/61 122/189/61 91/219/61
f 91/219/61 122/189/61 92/220/61
f 92/220/61 122/189/61 93/221/61
f 93/221/61 122/189/61 94/222/61
f 94/222/61 122/189/61 95/223/61
f 95/223/61 122/189/61 96/224/61
f 96/224/61 122/189/61 97/225/61
f 97/225/61 122/189/61 98/226/61
f 98/226/61 122/189/61 99/227/61
f 99/227/61 122/189/61 100/228/61
f 100/228/61 122/189/61 101/229/61
f 101/229/61 122/189/61 102/230/61
f 102/230/61 122/189/61 103/231/61
f 103/231/61 122/189/61 104/232/61
f 104/232/61 122/189/61 105/233/61
f 105/233/61 122/189/61 106/234/61
f 106/234/61 122/189/61 107/235/61
f 107/235/61 122/189/61 108/236/61
f 108/236/61 122/189/61 109/237/61
f 109/237/61 122/189/61 110/238/61
f 110/238/61 122/189/61 111/239/61
f 111/239/61 122/189/61 112/240/61
f 112/240/61 122/189/61 113/241/61
f 113/241/61 122/189/61 114/242/61
f 114/242/61 122/189/61 115/243/61
f 115/243/61 122/189/61 116/244/61
f 116/244/61 122/189/61 117/245/61
f 117/245/61 122/189/61 118/246/61
f 118/246/61 122/189/61 119/247/61
f 119/247/61 122/189/61 120/188/61
f 120/127/60 122/127/60 61/127/60
