# Blender 4.3.2
# www.blender.org
mtllib color.mtl
o color_wheel_cylinder
v 1.422659 0.180665 -0.125924
v 1.416994 0.180665 -0.232218
v 1.400063 0.180665 -0.337307
v 1.372057 0.180665 -0.440001
v 1.333294 0.180665 -0.539137
v 1.284213 0.180665 -0.633590
v 1.225371 0.180665 -0.722292
v 1.157434 0.180665 -0.804236
v 1.081171 0.180665 -0.878495
v 0.997447 0.180665 -0.944227
v 0.907210 0.180665 -1.000687
v 0.811484 0.180665 -1.047236
v 0.711351 0.180665 -1.083346
v 0.607948 0.180665 -1.108609
v 0.502445 0.180665 -1.122736
v 0.396039 0.180665 -1.125570
v 0.289934 0.180665 -1.117077
v 0.185333 0.180665 -1.097354
v 0.083420 0.180665 -1.066625
v -0.014648 0.180665 -1.025237
v -0.107762 0.180665 -0.973659
v -0.194865 0.180665 -0.912476
v -0.274972 0.180665 -0.842381
v -0.347175 0.180665 -0.764169
v -0.410655 0.180665 -0.678725
v -0.464693 0.180665 -0.587017
v -0.508677 0.180665 -0.490085
v -0.542109 0.180665 -0.389027
v -0.564609 0.180665 -0.284988
v -0.575923 0.180665 -0.179147
v -0.575923 0.180665 -0.072702
v -0.564609 0.180665 0.033139
v -0.542109 0.180665 0.137178
v -0.508677 0.180665 0.238236
v -0.464693 0.180665 0.335168
v -0.410655 0.180665 0.426876
v -0.347175 0.180665 0.512320
v -0.274972 0.180665 0.590532
v -0.194865 0.180665 0.660627
v -0.107762 0.180665 0.721810
v -0.014648 0.180665 0.773388
v 0.083420 0.180665 0.814776
v 0.185333 0.180665 0.845505
v 0.289934 0.180665 0.865228
v 0.396039 0.180665 0.873721
v 0.502445 0.180665 0.870888
v 0.607948 0.180665 0.856760
v 0.711351 0.180665 0.831498
v 0.811484 0.180665 0.795388
v 0.907210 0.180665 0.748839
v 0.997447 0.180665 0.692378
v 1.081171 0.180665 0.626646
v 1.157434 0.180665 0.552387
v 1.225371 0.180665 0.470443
v 1.284213 0.180665 0.381741
v 1.333294 0.180665 0.287288
v 1.372057 0.180665 0.188152
v 1.400063 0.180665 0.085458
v 1.416994 0.180665 -0.019631
v 1.422659 0.180665 -0.125924
v 1.422659 0.380665 -0.125924
v 1.416994 0.380665 -0.232218
v 1.400063 0.380665 -0.337307
v 1.372057 0.380665 -0.440001
v 1.333294 0.380665 -0.539137
v 1.284213 0.380665 -0.633590
v 1.225371 0.380665 -0.722292
v 1.157434 0.380665 -0.804236
v 1.081171 0.380665 -0.878495
v 0.997447 0.380665 -0.944227
v 0.907210 0.380665 -1.000687
v 0.811484 0.380665 -1.047236
v 0.711351 0.380665 -1.083346
v 0.607948 0.380665 -1.108609
v 0.502445 0.380665 -1.122736
v 0.396039 0.380665 -1.125570
v 0.289934 0.380665 -1.117077
v 0.185333 0.380665 -1.097354
v 0.083420 0.380665 -1.066625
v -0.014648 0.380665 -1.025237
v -0.107762 0.380665 -0.973659
v -0.194865 0.380665 -0.912476
v -0.274972 0.380665 -0.842381
v -0.347175 0.380665 -0.764169
v -0.410655 0.380665 -0.678725
v -0.464693 0.380665 -0.587017
v -0.508677 0.380665 -0.490085
v -0.542109 0.380665 -0.389027
v -0.564609 0.380665 -0.284988
v -0.575923 0.380665 -0.179147
v -0.575923 0.380665 -0.072702
v -0.564609 0.380665 0.033139
v -0.542109 0.380665 0.137178
v -0.508677 0.380665 0.238236
v -0.464693 0.380665 0.335168
v -0.410655 0.380665 0.426876
v -0.347175 0.380665 0.512320
v -0.274972 0.380665 0.590532
v -0.194865 0.380665 0.660627
v -0.107762 0.380665 0.721810
v -0.014648 0.380665 0.773388
v 0.083420 0.380665 0.814776
v 0.185333 0.380665 0.845505
v 0.289934 0.380665 0.865228
v 0.396039 0.380665 0.873721
v 0.502445 0.380665 0.870888
v 0.607948 0.380665 0.856760
v 0.711351 0.380665 0.831498
v 0.811484 0.380665 0.795388
v 0.907210 0.380665 0.748839
v 0.997447 0.380665 0.692378
v 1.081171 0.380665 0.626646
v 1.157434 0.380665 0.552387
v 1.225371 0.380665 0.470443
v 1.284213 0.380665 0.381741
v 1.333294 0.380665 0.287288
v 1.372057 0.380665 0.188152
v 1.400063 0.380665 0.085458
v 1.416994 0.380665 -0.019631
v 1.422659 0.380665 -0.125924
v 0.422659 0.180665 -0.125924
v 0.422659 0.380665 -0.125924
vn 0.7182 -0.6948 -0.0383
vn 0.7146 0.6953 -0.0764
vn 0.7182 0.6948 -0.0383
vn 0.9978 0.0251 0.0611
vn 0.7589 0.6302 -0.1641
vn 0.7024 -0.6953 -0.1519
vn 0.6823 0.6953 -0.2257
vn 0.6823 -0.6953 -0.2257
vn 0.6545 0.6953 -0.2970
vn 0.6545 -0.6953 -0.2970
vn 0.6192 0.6953 -0.3649
vn 0.6192 -0.6953 -0.3649
vn 0.5769 0.6953 -0.4286
vn 0.5769 -0.6953 -0.4286
vn 0.5281 0.6953 -0.4875
vn 0.5281 -0.6953 -0.4875
vn 0.4733 0.6953 -0.5409
vn 0.4733 -0.6953 -0.5409
vn 0.4131 0.6953 -0.5881
vn 0.4131 -0.6953 -0.5881
vn 0.3482 0.6953 -0.6287
vn 0.3482 -0.6953 -0.6287
vn 0.2794 0.6953 -0.6621
vn 0.2794 -0.6953 -0.6621
vn 0.2075 0.6953 -0.6881
vn 0.2075 -0.6953 -0.6881
vn 0.1332 0.6953 -0.7062
vn 0.1332 -0.6953 -0.7062
vn 0.0573 0.6953 -0.7164
vn 0.0573 -0.6953 -0.7164
vn -0.0191 0.6953 -0.7184
vn -0.0191 -0.6953 -0.7184
vn -0.0954 0.6953 -0.7123
vn -0.0954 -0.6953 -0.7123
vn -0.1706 0.6953 -0.6982
vn -0.1706 -0.6953 -0.6982
vn -0.2438 0.6953 -0.6761
vn -0.2438 -0.6953 -0.6761
vn -0.3143 0.6953 -0.6463
vn -0.3143 -0.6953 -0.6463
vn -0.3812 0.6953 -0.6093
vn -0.3812 -0.6953 -0.6093
vn -0.4438 0.6953 -0.5653
vn -0.4438 -0.6953 -0.5653
vn -0.5014 0.6953 -0.5149
vn -0.5014 -0.6953 -0.5149
vn -0.5533 0.6953 -0.4587
vn -0.5533 -0.6953 -0.4587
vn -0.5989 0.6953 -0.3973
vn -0.5989 -0.6953 -0.3973
vn -0.6377 0.6953 -0.3314
vn -0.6377 -0.6953 -0.3314
vn -0.6693 0.6953 -0.2617
vn -0.6693 -0.6953 -0.2617
vn -0.6934 0.6953 -0.1891
vn -0.6934 -0.6953 -0.1891
vn -0.7095 0.6953 -0.1143
vn -0.7095 -0.6953 -0.1143
vn -0.7177 0.6953 -0.0382
vn -0.7177 -0.6953 -0.0382
vn -0.7177 0.6953 0.0382
vn -0.7177 -0.6953 0.0382
vn -0.7095 0.6953 0.1143
vn -0.7095 -0.6953 0.1143
vn -0.6934 0.6953 0.1891
vn -0.6934 -0.6953 0.1891
vn -0.6693 0.6953 0.2617
vn -0.6693 -0.6953 0.2617
vn -0.6377 0.6953 0.3314
vn -0.6377 -0.6953 0.3314
vn -0.5989 0.6953 0.3973
vn -0.5989 -0.6953 0.3973
vn -0.5533 0.6953 0.4587
vn -0.5533 -0.6953 0.4587
vn -0.5014 0.6953 0.5149
vn -0.5014 -0.6953 0.5149
vn -0.4438 0.6953 0.5653
vn -0.4438 -0.6953 0.5653
vn -0.3812 0.6953 0.6093
vn -0.3812 -0.6953 0.6093
vn -0.3143 0.6953 0.6463
vn -0.3143 -0.6953 0.6463
vn -0.2438 0.6953 0.6761
vn -0.2438 -0.6953 0.6761
vn -0.1706 0.6953 0.6982
vn -0.1706 -0.6953 0.6982
vn -0.0954 0.6953 0.7123
vn -0.0954 -0.6953 0.7123
vn -0.0191 0.6953 0.7184
vn -0.0191 -0.6953 0.7184
vn 0.0573 0.6953 0.7164
vn 0.0573 -0.6953 0.7164
vn 0.1332 0.6953 0.7062
vn 0.1332 -0.6953 0.7062
vn 0.2075 0.6953 0.6881
vn 0.2075 -0.6953 0.6881
vn 0.2794 0.6953 0.6621
vn 0.2794 -0.6953 0.6621
vn 0.3482 0.6953 0.6287
vn 0.3482 -0.6953 0.6287
vn 0.4131 0.6953 0.5881
vn 0.4131 -0.6953 0.5881
vn 0.4733 0.6953 0.5409
vn 0.4733 -0.6953 0.5409
vn 0.5281 0.6953 0.4875
vn 0.5281 -0.6953 0.4875
vn 0.5769 0.6953 0.4286
vn 0.5769 -0.6953 0.4286
vn 0.6192 0.6953 0.3649
vn 0.6192 -0.6953 0.3649
vn 0.6545 0.6953 0.2970
vn 0.6545 -0.6953 0.2970
vn 0.6823 0.6953 0.2257
vn 0.6823 -0.6953 0.2257
vn 0.7024 0.6953 0.1519
vn 0.7024 -0.6953 0.1519
vn 0.7146 0.6953 0.0764
vn 0.7146 -0.6953 0.0764
vn 0.7182 0.6948 0.0383
vn 0.7182 -0.6948 0.0383
vn -0.0000 -0.0000 1.0000
vn -0.0000 -1.0000 -0.0000
vn -0.0000 1.0000 -0.0000
vt 0.050035 0.500177
vt 0.000000 0.519744
vt 0.000000 0.500177
vt 0.050035 0.519744
vt 0.000000 0.541120
vt 0.050035 0.541120
vt 0.000000 0.564063
vt 0.050035 0.564063
vt 0.000000 0.588314
vt 0.050035 0.588314
vt 0.000000 0.613596
vt 0.050035 0.613596
vt 0.000000 0.639624
vt 0.050035 0.639624
vt 0.000000 0.666103
vt 0.050035 0.666103
vt 0.000000 0.692733
vt 0.050035 0.692733
vt 0.000000 0.719212
vt 0.050035 0.719212
vt 0.000000 0.745241
vt 0.050035 0.745241
vt 0.000000 0.770523
vt 0.050035 0.770523
vt 0.000000 0.794773
vt 0.050035 0.794773
vt 0.000000 0.817716
vt 0.050035 0.817716
vt 0.000000 0.839093
vt 0.050035 0.839093
vt 0.000000 0.858660
vt 0.050035 0.858660
vt 0.200142 0.500177
vt 0.150106 0.519744
vt 0.150106 0.500177
vt 0.200142 0.519744
vt 0.150106 0.541120
vt 0.200142 0.541120
vt 0.150106 0.564064
vt 0.200142 0.564064
vt 0.150106 0.588314
vt 0.200142 0.588314
vt 0.150106 0.613596
vt 0.200142 0.613596
vt 0.150106 0.639624
vt 0.200142 0.639624
vt 0.150106 0.666103
vt 0.200142 0.666103
vt 0.150106 0.692733
vt 0.200142 0.692733
vt 0.150106 0.719212
vt 0.200142 0.719212
vt 0.150106 0.745241
vt 0.200142 0.745241
vt 0.150106 0.770523
vt 0.200142 0.770523
vt 0.150106 0.794773
vt 0.200142 0.794773
vt 0.150106 0.817716
vt 0.200142 0.817716
vt 0.150106 0.839093
vt 0.200142 0.839093
vt 0.100071 0.500177
vt 0.050036 0.519744
vt 0.050036 0.500177
vt 0.100071 0.519744
vt 0.050036 0.541120
vt 0.100071 0.541120
vt 0.100071 0.564063
vt 0.100071 0.588314
vt 0.100071 0.613596
vt 0.100071 0.639624
vt 0.100071 0.666103
vt 0.100071 0.692733
vt 0.100071 0.719212
vt 0.100071 0.745241
vt 0.100071 0.770523
vt 0.100071 0.794773
vt 0.100071 0.817716
vt 0.100071 0.839093
vt 0.100071 0.858660
vt 0.100071 0.564064
vt 0.150106 0.858660
vt 0.500000 0.263404
vt 0.250177 0.250089
vt 0.497169 0.289883
vt 0.491540 0.315911
vt 0.483176 0.341193
vt 0.472173 0.365443
vt 0.458654 0.388387
vt 0.442772 0.409763
vt 0.424709 0.429330
vt 0.404668 0.446866
vt 0.382877 0.462172
vt 0.359582 0.475076
vt 0.335047 0.485430
vt 0.309551 0.493118
vt 0.283382 0.498053
vt 0.256837 0.500177
vt 0.230217 0.499468
vt 0.203822 0.495934
vt 0.177953 0.489614
vt 0.152902 0.480580
vt 0.128954 0.468934
vt 0.106379 0.454809
vt 0.085433 0.438365
vt 0.066354 0.419787
vt 0.049357 0.399286
vt 0.034636 0.377095
vt 0.022357 0.353465
vt 0.012660 0.328663
vt 0.005653 0.302972
vt 0.001417 0.276681
vt 0.000000 0.250089
vt 0.001417 0.223496
vt 0.005653 0.197205
vt 0.012660 0.171514
vt 0.022357 0.146712
vt 0.034636 0.123082
vt 0.049357 0.100891
vt 0.066353 0.080390
vt 0.085433 0.061813
vt 0.106379 0.045368
vt 0.128954 0.031243
vt 0.152902 0.019597
vt 0.177953 0.010563
vt 0.203822 0.004243
vt 0.230217 0.000709
vt 0.256837 -0.000000
vt 0.283382 0.002125
vt 0.309551 0.007059
vt 0.335047 0.014747
vt 0.359582 0.025101
vt 0.382877 0.038005
vt 0.404668 0.053311
vt 0.424709 0.070847
vt 0.442772 0.090414
vt 0.458653 0.111791
vt 0.472173 0.134734
vt 0.483176 0.158984
vt 0.491540 0.184266
vt 0.497169 0.210294
vt 0.500000 0.236774
vt 0.749823 0.250089
vt 0.502831 0.289883
vt 0.508460 0.315911
vt 0.516824 0.341193
vt 0.527827 0.365443
vt 0.541347 0.388387
vt 0.557228 0.409763
vt 0.575291 0.429330
vt 0.595332 0.446866
vt 0.617123 0.462173
vt 0.640418 0.475076
vt 0.664953 0.485430
vt 0.690449 0.493118
vt 0.716618 0.498053
vt 0.743163 0.500177
vt 0.769783 0.499468
vt 0.796178 0.495934
vt 0.822047 0.489614
vt 0.847098 0.480580
vt 0.871046 0.468934
vt 0.893622 0.454809
vt 0.914567 0.438365
vt 0.933647 0.419787
vt 0.950643 0.399286
vt 0.965364 0.377095
vt 0.977643 0.353465
vt 0.987340 0.328663
vt 0.994347 0.302972
vt 0.998583 0.276681
vt 1.000000 0.250089
vt 0.998583 0.223496
vt 0.994347 0.197205
vt 0.987340 0.171514
vt 0.977643 0.146712
vt 0.965364 0.123082
vt 0.950643 0.100891
vt 0.933646 0.080390
vt 0.914567 0.061812
vt 0.893621 0.045368
vt 0.871046 0.031243
vt 0.847098 0.019597
vt 0.822047 0.010563
vt 0.796178 0.004243
vt 0.769783 0.000709
vt 0.743163 -0.000000
vt 0.716618 0.002125
vt 0.690449 0.007059
vt 0.664953 0.014747
vt 0.640418 0.025101
vt 0.617123 0.038005
vt 0.595332 0.053311
vt 0.575291 0.070847
vt 0.557228 0.090414
vt 0.541346 0.111791
vt 0.527827 0.134734
vt 0.516824 0.158984
vt 0.508460 0.184266
vt 0.502831 0.210295
s 1
usemtl 材质
f 1/1/1 62/2/2 61/3/3
f 1/1/1 2/4/4 62/2/2
f 2/4/4 63/5/5 62/2/2
f 2/4/4 3/6/6 63/5/5
f 3/6/6 64/7/7 63/5/5
f 3/6/6 4/8/8 64/7/7
f 4/8/8 65/9/9 64/7/7
f 4/8/8 5/10/10 65/9/9
f 5/10/10 66/11/11 65/9/9
f 5/10/10 6/12/12 66/11/11
f 6/12/12 67/13/13 66/11/11
f 6/12/12 7/14/14 67/13/13
f 7/14/14 68/15/15 67/13/13
f 7/14/14 8/16/16 68/15/15
f 8/16/16 69/17/17 68/15/15
f 8/16/16 9/18/18 69/17/17
f 9/18/18 70/19/19 69/17/17
f 9/18/18 10/20/20 70/19/19
f 10/20/20 71/21/21 70/19/19
f 10/20/20 11/22/22 71/21/21
f 11/22/22 72/23/23 71/21/21
f 11/22/22 12/24/24 72/23/23
f 12/24/24 73/25/25 72/23/23
f 12/24/24 13/26/26 73/25/25
f 13/26/26 74/27/27 73/25/25
f 13/26/26 14/28/28 74/27/27
f 14/28/28 75/29/29 74/27/27
f 14/28/28 15/30/30 75/29/29
f 15/30/30 76/31/31 75/29/29
f 15/30/30 16/32/32 76/31/31
f 16/33/32 77/34/33 76/35/31
f 16/33/32 17/36/34 77/34/33
f 17/36/34 78/37/35 77/34/33
f 17/36/34 18/38/36 78/37/35
f 18/38/36 79/39/37 78/37/35
f 18/38/36 19/40/38 79/39/37
f 19/40/38 80/41/39 79/39/37
f 19/40/38 20/42/40 80/41/39
f 20/42/40 81/43/41 80/41/39
f 20/42/40 21/44/42 81/43/41
f 21/44/42 82/45/43 81/43/41
f 21/44/42 22/46/44 82/45/43
f 22/46/44 83/47/45 82/45/43
f 22/46/44 23/48/46 83/47/45
f 23/48/46 84/49/47 83/47/45
f 23/48/46 24/50/48 84/49/47
f 24/50/48 85/51/49 84/49/47
f 24/50/48 25/52/50 85/51/49
f 25/52/50 86/53/51 85/51/49
f 25/52/50 26/54/52 86/53/51
f 26/54/52 87/55/53 86/53/51
f 26/54/52 27/56/54 87/55/53
f 27/56/54 88/57/55 87/55/53
f 27/56/54 28/58/56 88/57/55
f 28/58/56 89/59/57 88/57/55
f 28/58/56 29/60/58 89/59/57
f 29/60/58 90/61/59 89/59/57
f 29/60/58 30/62/60 90/61/59
f 30/63/60 91/64/61 90/65/59
f 30/63/60 31/66/62 91/64/61
f 31/66/62 92/67/63 91/64/61
f 31/66/62 32/68/64 92/67/63
f 32/68/64 93/8/65 92/67/63
f 32/68/64 33/69/66 93/8/65
f 33/69/66 94/10/67 93/8/65
f 33/69/66 34/70/68 94/10/67
f 34/70/68 95/12/69 94/10/67
f 34/70/68 35/71/70 95/12/69
f 35/71/70 96/14/71 95/12/69
f 35/71/70 36/72/72 96/14/71
f 36/72/72 97/16/73 96/14/71
f 36/72/72 37/73/74 97/16/73
f 37/73/74 98/18/75 97/16/73
f 37/73/74 38/74/76 98/18/75
f 38/74/76 99/20/77 98/18/75
f 38/74/76 39/75/78 99/20/77
f 39/75/78 100/22/79 99/20/77
f 39/75/78 40/76/80 100/22/79
f 40/76/80 101/24/81 100/22/79
f 40/76/80 41/77/82 101/24/81
f 41/77/82 102/26/83 101/24/81
f 41/77/82 42/78/84 102/26/83
f 42/78/84 103/28/85 102/26/83
f 42/78/84 43/79/86 103/28/85
f 43/79/86 104/30/87 103/28/85
f 43/79/86 44/80/88 104/30/87
f 44/80/88 105/32/89 104/30/87
f 44/80/88 45/81/90 105/32/89
f 45/35/90 106/66/91 105/63/89
f 45/35/90 46/34/92 106/66/91
f 46/34/92 107/68/93 106/66/91
f 46/34/92 47/37/94 107/68/93
f 47/37/94 108/82/95 107/68/93
f 47/37/94 48/39/96 108/82/95
f 48/39/96 109/70/97 108/82/95
f 48/39/96 49/41/98 109/70/97
f 49/41/98 110/71/99 109/70/97
f 49/41/98 50/43/100 110/71/99
f 50/43/100 111/72/101 110/71/99
f 50/43/100 51/45/102 111/72/101
f 51/45/102 112/73/103 111/72/101
f 51/45/102 52/47/104 112/73/103
f 52/47/104 113/74/105 112/73/103
f 52/47/104 53/49/106 113/74/105
f 53/49/106 114/75/107 113/74/105
f 53/49/106 54/51/108 114/75/107
f 54/51/108 115/76/109 114/75/107
f 54/51/108 55/53/110 115/76/109
f 55/53/110 116/77/111 115/76/109
f 55/53/110 56/55/112 116/77/111
f 56/55/112 117/78/113 116/77/111
f 56/55/112 57/57/114 117/78/113
f 57/57/114 118/79/115 117/78/113
f 57/57/114 58/59/116 118/79/115
f 58/59/116 119/80/117 118/79/115
f 58/59/116 59/61/118 119/80/117
f 59/61/118 120/81/119 119/80/117
f 59/61/118 60/83/120 120/81/119
s 0
f 60/33/121 61/33/121 120/33/121
f 60/33/121 1/33/121 61/33/121
s 1
f 1/84/1 121/85/122 2/86/4
f 2/86/4 121/85/122 3/87/6
f 3/87/6 121/85/122 4/88/8
f 4/88/8 121/85/122 5/89/10
f 5/89/10 121/85/122 6/90/12
f 6/90/12 121/85/122 7/91/14
f 7/91/14 121/85/122 8/92/16
f 8/92/16 121/85/122 9/93/18
f 9/93/18 121/85/122 10/94/20
f 10/94/20 121/85/122 11/95/22
f 11/95/22 121/85/122 12/96/24
f 12/96/24 121/85/122 13/97/26
f 13/97/26 121/85/122 14/98/28
f 14/98/28 121/85/122 15/99/30
f 15/99/30 121/85/122 16/100/32
f 16/100/32 121/85/122 17/101/34
f 17/101/34 121/85/122 18/102/36
f 18/102/36 121/85/122 19/103/38
f 19/103/38 121/85/122 20/104/40
f 20/104/40 121/85/122 21/105/42
f 21/105/42 121/85/122 22/106/44
f 22/106/44 121/85/122 23/107/46
f 23/107/46 121/85/122 24/108/48
f 24/108/48 121/85/122 25/109/50
f 25/109/50 121/85/122 26/110/52
f 26/110/52 121/85/122 27/111/54
f 27/111/54 121/85/122 28/112/56
f 28/112/56 121/85/122 29/113/58
f 29/113/58 121/85/122 30/114/60
f 30/114/60 121/85/122 31/115/62
f 31/115/62 121/85/122 32/116/64
f 32/116/64 121/85/122 33/117/66
f 33/117/66 121/85/122 34/118/68
f 34/118/68 121/85/122 35/119/70
f 35/119/70 121/85/122 36/120/72
f 36/120/72 121/85/122 37/121/74
f 37/121/74 121/85/122 38/122/76
f 38/122/76 121/85/122 39/123/78
f 39/123/78 121/85/122 40/124/80
f 40/124/80 121/85/122 41/125/82
f 41/125/82 121/85/122 42/126/84
f 42/126/84 121/85/122 43/127/86
f 43/127/86 121/85/122 44/128/88
f 44/128/88 121/85/122 45/129/90
f 45/129/90 121/85/122 46/130/92
f 46/130/92 121/85/122 47/131/94
f 47/131/94 121/85/122 48/132/96
f 48/132/96 121/85/122 49/133/98
f 49/133/98 121/85/122 50/134/100
f 50/134/100 121/85/122 51/135/102
f 51/135/102 121/85/122 52/136/104
f 52/136/104 121/85/122 53/137/106
f 53/137/106 121/85/122 54/138/108
f 54/138/108 121/85/122 55/139/110
f 55/139/110 121/85/122 56/140/112
f 56/140/112 121/85/122 57/141/114
f 57/141/114 121/85/122 58/142/116
f 58/142/116 121/85/122 59/143/118
f 59/143/118 121/85/122 60/84/120
s 0
f 60/33/121 121/33/121 1/33/121
s 1
f 61/143/3 62/84/2 122/144/123
f 62/84/2 63/145/5 122/144/123
f 63/145/5 64/146/7 122/144/123
f 64/146/7 65/147/9 122/144/123
f 65/147/9 66/148/11 122/144/123
f 66/148/11 67/149/13 122/144/123
f 67/149/13 68/150/15 122/144/123
f 68/150/15 69/151/17 122/144/123
f 69/151/17 70/152/19 122/144/123
f 70/152/19 71/153/21 122/144/123
f 71/153/21 72/154/23 122/144/123
f 72/154/23 73/155/25 122/144/123
f 73/155/25 74/156/27 122/144/123
f 74/156/27 75/157/29 122/144/123
f 75/157/29 76/158/31 122/144/123
f 76/158/31 77/159/33 122/144/123
f 77/159/33 78/160/35 122/144/123
f 78/160/35 79/161/37 122/144/123
f 79/161/37 80/162/39 122/144/123
f 80/162/39 81/163/41 122/144/123
f 81/163/41 82/164/43 122/144/123
f 82/164/43 83/165/45 122/144/123
f 83/165/45 84/166/47 122/144/123
f 84/166/47 85/167/49 122/144/123
f 85/167/49 86/168/51 122/144/123
f 86/168/51 87/169/53 122/144/123
f 87/169/53 88/170/55 122/144/123
f 88/170/55 89/171/57 122/144/123
f 89/171/57 90/172/59 122/144/123
f 90/172/59 91/173/61 122/144/123
f 91/173/61 92/174/63 122/144/123
f 92/174/63 93/175/65 122/144/123
f 93/175/65 94/176/67 122/144/123
f 94/176/67 95/177/69 122/144/123
f 95/177/69 96/178/71 122/144/123
f 96/178/71 97/179/73 122/144/123
f 97/179/73 98/180/75 122/144/123
f 98/180/75 99/181/77 122/144/123
f 99/181/77 100/182/79 122/144/123
f 100/182/79 101/183/81 122/144/123
f 101/183/81 102/184/83 122/144/123
f 102/184/83 103/185/85 122/144/123
f 103/185/85 104/186/87 122/144/123
f 104/186/87 105/187/89 122/144/123
f 105/187/89 106/188/91 122/144/123
f 106/188/91 107/189/93 122/144/123
f 107/189/93 108/190/95 122/144/123
f 108/190/95 109/191/97 122/144/123
f 109/191/97 110/192/99 122/144/123
f 110/192/99 111/193/101 122/144/123
f 111/193/101 112/194/103 122/144/123
f 112/194/103 113/195/105 122/144/123
f 113/195/105 114/196/107 122/144/123
f 114/196/107 115/197/109 122/144/123
f 115/197/109 116/198/111 122/144/123
f 116/198/111 117/199/113 122/144/123
f 117/199/113 118/200/115 122/144/123
f 118/200/115 119/201/117 122/144/123
f 119/201/117 120/143/119 122/144/123
s 0
f 120/33/121 61/33/121 122/33/121
